<svg width="36" height="36" viewBox="0 0 36 36" fill="none" xmlns="http://www.w3.org/2000/svg">
<g filter="url(#filter0_d_1_666)">
<g clip-path="url(#clip0_1_666)">
<path d="M4 13.5436V13.504C4.35146 8.9099 5.99163 5.46435 8.8424 3.28613C11.6541 1.06831 14.7001 -0.000994799 18.0195 -0.000994799C21.4951 -0.0405988 24.7364 1.14752 27.6262 3.52376C30.5551 5.86039 32 9.34554 32 13.8604V14.1376C32 18.6921 30.5551 22.098 27.6262 24.4346C24.6974 26.8109 21.4561 27.999 17.9805 27.999H17.8243C14.4268 27.9594 11.3026 26.7713 8.41283 24.395C5.52301 22.0584 4.03905 18.4545 4 13.5436ZM17.1604 7.32574V1.06831H16.2232C16.0279 1.30594 15.8717 1.58316 15.7155 1.82079C15.5593 2.05841 15.4031 2.29603 15.2469 2.57326C15.0907 2.81089 14.8954 3.12772 14.7782 3.36534C14.622 3.60297 14.5049 3.84059 14.3877 4.11782C14.1534 4.51386 13.9582 4.9099 13.802 5.26633C13.6067 5.62277 13.4505 5.9792 13.3333 6.29603C13.5676 6.45445 13.841 6.65247 14.1534 6.77128C14.5049 6.89009 14.8563 7.00891 15.2078 7.08811C15.5983 7.16732 15.9498 7.20693 16.2622 7.24653C16.6137 7.28613 16.9261 7.32574 17.1604 7.32574ZM18.8006 1.06831V7.28613C18.9958 7.28613 19.2301 7.32574 19.4644 7.28613C19.6987 7.28613 19.9721 7.24653 20.2064 7.20693C20.636 7.12772 21.1437 7.00891 21.5342 6.89009C21.9637 6.73168 22.3543 6.53366 22.6276 6.29603C22.159 5.14752 21.6513 4.23663 21.1437 3.36534C20.636 2.49405 20.0502 1.74158 19.4254 1.10792V1.06831H18.8006ZM14.583 1.42475V1.38514C14.3096 1.50396 14.0363 1.70198 13.7238 1.82079C13.4505 1.9396 13.099 2.09802 12.8257 2.25643C12.2789 2.53366 11.7322 2.85049 11.1855 3.20693C10.6778 3.56336 10.1702 3.9594 9.74059 4.35544C9.89679 4.51386 10.0921 4.67227 10.2483 4.79108C10.4045 4.9099 10.5997 5.06831 10.795 5.22673C10.9512 5.30594 11.1464 5.42475 11.3417 5.58316C11.537 5.70198 11.7713 5.86039 12.0056 6.01881C12.318 5.30594 12.6304 4.55346 13.0209 3.88019C13.4114 3.16732 13.841 2.49405 14.2706 1.9C14.3096 1.82079 14.3487 1.74158 14.4268 1.66237C14.4658 1.62277 14.5049 1.50396 14.583 1.42475ZM26.5328 4.35544V4.31584C25.5565 3.56336 24.6974 2.9297 23.8382 2.53366C22.9791 2.13762 22.1199 1.74158 21.3389 1.42475C21.9637 2.05841 22.5105 2.85049 22.8619 3.60297C23.2524 4.39504 23.643 5.22673 23.9554 6.01881C24.1116 5.9396 24.3068 5.86039 24.5411 5.70198C24.7364 5.58316 25.0098 5.46435 25.2441 5.34554C25.4784 5.18712 25.6736 5.02871 25.9079 4.87029C26.1423 4.67227 26.3766 4.51386 26.5328 4.35544ZM25.8689 13.1871H30.3598C30.3598 11.7218 30.0474 10.3356 29.4616 8.9099C28.9149 7.52376 28.1339 6.37524 27.1576 5.38514V5.34554C26.9623 5.66237 26.689 5.9396 26.4156 6.13762C26.1032 6.33564 25.8298 6.49405 25.5174 6.65247C25.3222 6.77128 25.1269 6.9297 24.9317 7.00891C24.7364 7.12772 24.463 7.20693 24.2678 7.32574C24.424 7.64257 24.5802 7.99901 24.7364 8.31584C24.8536 8.67227 25.0488 9.06831 25.1269 9.42475C25.3612 10.0584 25.5174 10.7317 25.6736 11.4049C25.7908 11.999 25.8689 12.6327 25.8689 13.1871ZM11.7322 7.32574V7.28613C11.4198 7.12772 11.0683 7.00891 10.795 6.85049C10.5216 6.65247 10.2483 6.45445 10.0139 6.29603C9.77964 6.17722 9.54533 6.01881 9.35007 5.86039C9.15481 5.70198 8.99861 5.54356 8.8424 5.38514C7.82706 6.37524 7.08508 7.48415 6.61646 8.79108C6.10879 10.098 5.75732 11.5634 5.60112 13.1475H10.4045C10.4045 12.0386 10.5607 10.9693 10.834 9.89999C11.0683 8.79108 11.4198 7.9594 11.7322 7.32574ZM17.1604 13.1475V8.59306C16.848 8.63267 16.4575 8.63267 16.106 8.59306C15.7155 8.55346 15.325 8.43465 14.9735 8.31584C14.6611 8.23663 14.2706 8.15742 13.9582 8.03861C13.6067 7.9594 13.2552 7.80099 12.9819 7.64257C12.7476 8.03861 12.5523 8.51386 12.3961 9.02871C12.2008 9.50396 12.0837 10.0188 11.9665 10.4941C11.8884 10.9693 11.8494 11.4842 11.8103 11.9198C11.7713 12.3554 11.7322 12.7911 11.7322 13.1475H17.1604ZM18.8006 8.67227V13.1475H24.5802C24.5802 12.9099 24.5802 12.6327 24.5411 12.3158C24.463 12.0386 24.424 11.6822 24.3849 11.3653C24.2678 10.8901 24.1506 10.3752 23.9944 9.89999C23.8382 9.46435 23.682 9.02871 23.4867 8.67227C23.4086 8.47425 23.3305 8.23663 23.2524 8.07821C23.1353 7.88019 23.0181 7.76138 22.94 7.64257C22.5105 7.9594 21.9247 8.15742 21.2218 8.31584C20.5579 8.47425 19.7768 8.63267 19.0739 8.67227H18.8006ZM10.4045 14.4545H5.60112C5.60112 15.1277 5.71827 15.8802 5.91353 16.7911C6.10879 17.7416 6.4993 18.6129 6.92887 19.5634C7.12413 20.0386 7.35844 20.5139 7.59275 20.9891C7.86611 21.4247 8.17852 21.9 8.49093 22.3356C8.72524 22.1772 8.95955 22.0584 9.15481 21.9396C9.38912 21.8208 9.66248 21.6624 9.89679 21.5436C10.1702 21.4247 10.4435 21.3059 10.7559 21.1475C11.0293 21.0287 11.3808 20.8703 11.7322 20.7119C11.4198 19.7218 11.0683 18.7713 10.834 17.702C10.5607 16.6723 10.4045 15.6426 10.4045 14.4941V14.4545ZM17.1604 19.0881V14.4545H11.7322C11.7322 14.7713 11.7713 15.2465 11.8494 15.7218C11.8884 16.197 12.0056 16.7119 12.0837 17.2267C12.2399 17.7812 12.357 18.3356 12.5132 18.8109C12.6695 19.2861 12.8257 19.6822 12.9819 20.0386C13.6848 19.7614 14.3877 19.5634 14.8563 19.4445C15.364 19.2861 15.8326 19.1673 16.3013 19.1277H16.7308C16.887 19.0881 17.0432 19.0881 17.1604 19.0881ZM18.8006 14.4545V19.0485C19.0739 19.0881 19.3863 19.1277 19.6987 19.1673C20.0502 19.2069 20.4798 19.2861 20.8312 19.3653L21.417 19.4842C21.6123 19.5634 21.8466 19.603 22.0418 19.6426C22.2762 19.7218 22.5105 19.7614 22.7448 19.8406C22.94 19.9198 23.1353 19.9594 23.2915 20.0386C23.7992 18.7317 24.1116 17.6624 24.3068 16.7515C24.5021 15.8802 24.5802 15.1277 24.5802 14.4941V14.4545H18.8006ZM30.3598 14.4941V14.4545H25.8689V14.6921C25.8298 15.4446 25.7127 16.3158 25.5565 17.2267C25.4003 18.098 25.0488 19.1277 24.5802 20.395C25.205 20.7119 25.7908 21.0287 26.2594 21.3455C26.728 21.6624 27.1576 22.0188 27.47 22.3356C28.1339 21.6624 28.7197 20.7515 29.2273 19.5634C29.735 18.4148 30.0865 17.2267 30.2817 15.9594C30.3208 15.7218 30.3208 15.4842 30.3598 15.2465V14.4941ZM17.1604 26.5337V20.3554C16.1841 20.5139 15.364 20.7119 14.7392 20.8703C14.1144 21.0287 13.6457 21.1871 13.3333 21.3455C13.5676 21.9396 13.802 22.4544 14.0363 22.9297C14.2706 23.3653 14.5439 23.8406 14.7782 24.2366C14.8563 24.395 15.0126 24.5535 15.1297 24.7515C15.2469 24.9099 15.325 25.1079 15.4421 25.2663C15.5593 25.4644 15.6764 25.702 15.7936 25.9396C15.9498 26.1376 16.0669 26.3752 16.2232 26.5337H17.1604ZM18.8006 26.5337H19.6987C20.0502 26.2564 20.4017 25.8604 20.675 25.4247C20.9874 24.9891 21.3389 24.4743 21.5732 24.0386C21.8466 23.5238 22.1199 23.0485 22.3543 22.5733C22.5886 22.098 22.7838 21.6624 22.94 21.3455C22.5105 21.1871 21.9247 21.0287 21.3389 20.8703C20.7531 20.7119 19.9331 20.5535 18.8006 20.395V26.5337ZM26.5328 23.2861V23.2465C26.4547 23.1277 26.2985 22.9693 26.1813 22.8505C26.0642 22.7317 25.8689 22.5733 25.6736 22.4544C25.5174 22.3356 25.3222 22.2168 25.0879 22.098C24.8536 21.9792 24.5411 21.8208 24.2678 21.6624C24.1116 21.9792 23.8382 22.5337 23.4477 23.2861C23.0962 24.0386 22.4714 24.9495 21.6904 25.9396C22.6667 25.7812 23.5258 25.4247 24.3068 24.9495C25.166 24.5139 25.908 23.9198 26.5328 23.2861ZM12.0056 22.0188V21.9792C11.7322 22.1376 11.3026 22.3356 10.8731 22.5337C10.4045 22.7317 9.89679 22.9693 9.42817 23.2861C9.70153 23.5238 9.9749 23.7614 10.2092 23.9198C10.4435 24.1178 10.7169 24.2762 10.9512 24.4346C11.3808 24.7119 11.8884 24.9891 12.3961 25.2267C12.9038 25.4644 13.5286 25.702 14.3096 25.9396C14.0363 25.6228 13.841 25.2267 13.6457 24.9099C13.4505 24.5931 13.2162 24.2762 13.0209 23.9594C12.8257 23.6426 12.6695 23.2861 12.5132 22.9693C12.318 22.6525 12.1618 22.3356 12.0056 22.0188Z" fill="white"/>
</g>
</g>
<defs>
<filter id="filter0_d_1_666" x="0" y="0" width="36" height="36" filterUnits="userSpaceOnUse" color-interpolation-filters="sRGB">
<feFlood flood-opacity="0" result="BackgroundImageFix"/>
<feColorMatrix in="SourceAlpha" type="matrix" values="0 0 0 0 0 0 0 0 0 0 0 0 0 0 0 0 0 0 127 0" result="hardAlpha"/>
<feOffset dy="4"/>
<feGaussianBlur stdDeviation="2"/>
<feComposite in2="hardAlpha" operator="out"/>
<feColorMatrix type="matrix" values="0 0 0 0 0 0 0 0 0 0 0 0 0 0 0 0 0 0 0.25 0"/>
<feBlend mode="normal" in2="BackgroundImageFix" result="effect1_dropShadow_1_666"/>
<feBlend mode="normal" in="SourceGraphic" in2="effect1_dropShadow_1_666" result="shape"/>
</filter>
<clipPath id="clip0_1_666">
<rect width="28" height="28" fill="white" transform="translate(4)"/>
</clipPath>
</defs>
</svg>
