<svg width="106" height="30" viewBox="0 0 106 30" fill="none" xmlns="http://www.w3.org/2000/svg">
<path d="M2.85 23V0.019999H2.88L15.15 17.42L13.29 17L25.53 0.019999H25.59V23H21.24V9.83L21.51 12.08L14.04 22.7H13.98L6.3 12.08L7.05 10.01V23H2.85ZM31.2073 9.89H35.4073V23H31.2073V9.89ZM31.1173 5.24C31.1173 4.62 31.3573 4.11 31.8373 3.71C32.3373 3.31 32.8673 3.11 33.4273 3.11C33.9873 3.11 34.4973 3.31 34.9573 3.71C35.4373 4.11 35.6773 4.62 35.6773 5.24C35.6773 5.86 35.4373 6.37 34.9573 6.77C34.4973 7.15 33.9873 7.34 33.4273 7.34C32.8673 7.34 32.3373 7.15 31.8373 6.77C31.3573 6.37 31.1173 5.86 31.1173 5.24Z" fill="#F087B1"/>
<path d="M44.1127 9.89L44.5027 13.49L44.4127 12.95C44.7927 12.17 45.3127 11.51 45.9727 10.97C46.6327 10.41 47.2827 9.98 47.9227 9.68C48.5827 9.38 49.0827 9.23 49.4227 9.23L49.2127 13.43C48.2327 13.31 47.3927 13.47 46.6927 13.91C45.9927 14.35 45.4527 14.93 45.0727 15.65C44.6927 16.37 44.5027 17.11 44.5027 17.87V23H40.3327V9.89H44.1127ZM58.3179 23.36C57.0979 23.36 55.9879 23.12 54.9879 22.64C54.0079 22.14 53.2279 21.38 52.6479 20.36C52.0679 19.34 51.7779 18.04 51.7779 16.46C51.7779 14.98 52.0779 13.7 52.6779 12.62C53.2779 11.54 54.0679 10.71 55.0479 10.13C56.0279 9.53 57.0679 9.23 58.1679 9.23C59.4679 9.23 60.4479 9.45 61.1079 9.89C61.7879 10.31 62.3479 10.78 62.7879 11.3L62.6079 11.81L62.9979 9.89H66.8979V23H62.6979V20.15L63.0279 21.05C62.9879 21.05 62.8679 21.17 62.6679 21.41C62.4679 21.63 62.1679 21.9 61.7679 22.22C61.3879 22.52 60.9079 22.78 60.3279 23C59.7679 23.24 59.0979 23.36 58.3179 23.36ZM59.5179 19.94C60.0179 19.94 60.4679 19.87 60.8679 19.73C61.2679 19.57 61.6179 19.35 61.9179 19.07C62.2179 18.77 62.4779 18.4 62.6979 17.96V14.75C62.5379 14.31 62.2979 13.94 61.9779 13.64C61.6579 13.32 61.2779 13.08 60.8379 12.92C60.3979 12.74 59.9079 12.65 59.3679 12.65C58.7679 12.65 58.2079 12.81 57.6879 13.13C57.1879 13.43 56.7879 13.85 56.4879 14.39C56.1879 14.93 56.0379 15.55 56.0379 16.25C56.0379 16.95 56.1979 17.58 56.5179 18.14C56.8379 18.7 57.2579 19.14 57.7779 19.46C58.3179 19.78 58.8979 19.94 59.5179 19.94ZM78.6056 29.6C77.4256 29.6 76.4256 29.46 75.6056 29.18C74.8056 28.9 74.1256 28.56 73.5656 28.16C73.0056 27.76 72.5056 27.38 72.0656 27.02L74.5256 24.14C74.9856 24.56 75.5156 24.96 76.1156 25.34C76.7356 25.74 77.5456 25.94 78.5456 25.94C79.2056 25.94 79.8156 25.82 80.3756 25.58C80.9556 25.36 81.4156 25.03 81.7556 24.59C82.1156 24.15 82.2956 23.6 82.2956 22.94V20.06L82.4456 20.81C82.1256 21.49 81.5456 22.09 80.7056 22.61C79.8656 23.11 78.7656 23.36 77.4056 23.36C76.2256 23.36 75.1256 23.06 74.1056 22.46C73.1056 21.84 72.3056 21.01 71.7056 19.97C71.1056 18.91 70.8056 17.71 70.8056 16.37C70.8056 14.99 71.1256 13.77 71.7656 12.71C72.4056 11.63 73.2356 10.78 74.2556 10.16C75.2756 9.54 76.3556 9.23 77.4956 9.23C78.6356 9.23 79.6156 9.4 80.4356 9.74C81.2756 10.06 81.9056 10.46 82.3256 10.94L82.1756 11.33L82.6256 9.89H86.4956V23C86.4956 24.28 86.1356 25.41 85.4156 26.39C84.6956 27.39 83.7356 28.17 82.5356 28.73C81.3556 29.31 80.0456 29.6 78.6056 29.6ZM75.0356 16.25C75.0356 16.95 75.1956 17.58 75.5156 18.14C75.8356 18.7 76.2656 19.14 76.8056 19.46C77.3656 19.78 77.9856 19.94 78.6656 19.94C79.2456 19.94 79.7556 19.87 80.1956 19.73C80.6556 19.57 81.0556 19.35 81.3956 19.07C81.7556 18.77 82.0556 18.4 82.2956 17.96V14.75C82.1156 14.31 81.8456 13.94 81.4856 13.64C81.1256 13.32 80.7056 13.08 80.2256 12.92C79.7656 12.74 79.2456 12.65 78.6656 12.65C77.9856 12.65 77.3656 12.81 76.8056 13.13C76.2656 13.43 75.8356 13.85 75.5156 14.39C75.1956 14.93 75.0356 15.55 75.0356 16.25ZM97.86 23.36C96.26 23.36 94.9 23.06 93.78 22.46C92.68 21.86 91.84 21.03 91.26 19.97C90.68 18.91 90.39 17.69 90.39 16.31C90.39 14.99 90.73 13.8 91.41 12.74C92.09 11.68 93 10.84 94.14 10.22C95.28 9.58 96.55 9.26 97.95 9.26C99.83 9.26 101.37 9.81 102.57 10.91C103.79 11.99 104.58 13.56 104.94 15.62L94.74 18.86L93.81 16.58L101.19 14.09L100.32 14.48C100.16 13.96 99.87 13.51 99.45 13.13C99.05 12.73 98.44 12.53 97.62 12.53C97 12.53 96.45 12.68 95.97 12.98C95.51 13.26 95.15 13.67 94.89 14.21C94.65 14.73 94.53 15.35 94.53 16.07C94.53 16.89 94.68 17.58 94.98 18.14C95.28 18.68 95.69 19.09 96.21 19.37C96.73 19.65 97.31 19.79 97.95 19.79C98.41 19.79 98.85 19.71 99.27 19.55C99.71 19.39 100.14 19.18 100.56 18.92L102.42 22.04C101.72 22.44 100.96 22.76 100.14 23C99.34 23.24 98.58 23.36 97.86 23.36Z" fill="#56597A"/>
</svg>
